<svg xmlns="http://www.w3.org/2000/svg" width="1200" height="800" viewBox="0 0 1200 800"><rect x="0" y="0" width="1200" height="800" fill="#f5f6fa"/><rect x="0" y="0" width="1200" height="56" fill="#1a1a2e"/><text x="20" y="36" font-family="Arial, 'PingFang SC', sans-serif" font-size="18" fill="#ffffff" font-weight="bold" text-anchor="start">A2UI Schema 管理平台 - 预览</text><rect x="0" y="56" width="1200" height="44" fill="#ffffff"/><rect x="16" y="64" width="110" height="28" fill="#f5f5f5" stroke="#e0e0e0" stroke-width="1" rx="4"/><text x="71" y="83" font-family="Arial, 'PingFang SC', sans-serif" font-size="11" fill="#666" font-weight="normal" text-anchor="middle">💻 桌面</text><rect x="136" y="64" width="110" height="28" fill="#e3f2fd" stroke="#1976d2" stroke-width="1" rx="4"/><text x="191" y="83" font-family="Arial, 'PingFang SC', sans-serif" font-size="11" fill="#1976d2" font-weight="normal" text-anchor="middle">📱 手机</text><rect x="256" y="64" width="110" height="28" fill="#f5f5f5" stroke="#e0e0e0" stroke-width="1" rx="4"/><text x="311" y="83" font-family="Arial, 'PingFang SC', sans-serif" font-size="11" fill="#666" font-weight="normal" text-anchor="middle">📲 小程序</text><rect x="376" y="64" width="110" height="28" fill="#f5f5f5" stroke="#e0e0e0" stroke-width="1" rx="4"/><text x="431" y="83" font-family="Arial, 'PingFang SC', sans-serif" font-size="11" fill="#666" font-weight="normal" text-anchor="middle">🔄 刷新</text><rect x="496" y="64" width="110" height="28" fill="#f5f5f5" stroke="#e0e0e0" stroke-width="1" rx="4"/><text x="551" y="83" font-family="Arial, 'PingFang SC', sans-serif" font-size="11" fill="#666" font-weight="normal" text-anchor="middle">📋 Mock数据</text><rect x="616" y="64" width="110" height="28" fill="#f5f5f5" stroke="#e0e0e0" stroke-width="1" rx="4"/><text x="671" y="83" font-family="Arial, 'PingFang SC', sans-serif" font-size="11" fill="#666" font-weight="normal" text-anchor="middle">🧪 绑定测试</text><rect x="400.5" y="80" width="399" height="747" fill="#1a1a1a" rx="30"/><rect x="412.5" y="120" width="375" height="24" fill="#f8f8f8" rx="0"/><text x="600" y="136" font-family="Arial, 'PingFang SC', sans-serif" font-size="10" fill="#333" font-weight="bold" text-anchor="middle">9:41</text><rect x="412.5" y="144" width="375" height="643" fill="#ffffff"/><rect x="412.5" y="144" width="375" height="44" fill="#ffffff"/><text x="600" y="172" font-family="Arial, 'PingFang SC', sans-serif" font-size="14" fill="#333" font-weight="bold" text-anchor="middle">List Page</text><rect x="422.5" y="198" width="355" height="30" fill="transparent" stroke="#e0e0e0" stroke-width="1" rx="0"/><rect x="847.5" y="120" width="332.5" height="400" fill="#ffffff" stroke="#e0e0e0" stroke-width="1" rx="8"/><rect x="847.5" y="120" width="332.5" height="36" fill="#f0f0f5" rx="8"/><text x="859.5" y="144" font-family="Arial, 'PingFang SC', sans-serif" font-size="12" fill="#333" font-weight="bold" text-anchor="start">📊 数据上下文</text><text x="859.5" y="176" font-family="Arial, 'PingFang SC', sans-serif" font-size="10" fill="#1565c0" font-weight="normal" text-anchor="start">{ "user": {</text><text x="871.5" y="192" font-family="Arial, 'PingFang SC', sans-serif" font-size="10" fill="#c62828" font-weight="normal" text-anchor="start">"name": "张三",</text><text x="871.5" y="208" font-family="Arial, 'PingFang SC', sans-serif" font-size="10" fill="#c62828" font-weight="normal" text-anchor="start">"avatar": "https://..."</text><text x="859.5" y="224" font-family="Arial, 'PingFang SC', sans-serif" font-size="10" fill="#1565c0" font-weight="normal" text-anchor="start">  },</text><text x="859.5" y="240" font-family="Arial, 'PingFang SC', sans-serif" font-size="10" fill="#1565c0" font-weight="normal" text-anchor="start">  "items": [ ... ]</text><text x="859.5" y="256" font-family="Arial, 'PingFang SC', sans-serif" font-size="10" fill="#1565c0" font-weight="normal" text-anchor="start">}</text><rect x="0" y="772" width="1200" height="28" fill="#f0f0f5"/><text x="16" y="790" font-family="Arial, 'PingFang SC', sans-serif" font-size="10" fill="#888" font-weight="normal" text-anchor="start">预览模式: 手机(375×667) | 数据源: Mock | 节点: 8 | 绑定: 5/5 已解析</text></svg>