<svg xmlns="http://www.w3.org/2000/svg" width="1200" height="800" viewBox="0 0 1200 800"><rect x="0" y="0" width="1200" height="800" fill="#f5f6fa"/><rect x="0" y="0" width="1200" height="56" fill="#1a1a2e"/><text x="20" y="36" font-family="Arial, 'PingFang SC', sans-serif" font-size="18" fill="#ffffff" font-weight="bold" text-anchor="start">A2UI Schema 管理平台</text><text x="1000" y="36" font-family="Arial, 'PingFang SC', sans-serif" font-size="12" fill="#a0a0c0" font-weight="normal" text-anchor="start">设计 | 预览 | 测试 | 发布</text><rect x="0" y="56" width="240" height="744" fill="#ffffff"/><rect x="0" y="56" width="240" height="40" fill="#f0f0f5"/><text x="16" y="82" font-family="Arial, 'PingFang SC', sans-serif" font-size="13" fill="#333" font-weight="bold" text-anchor="start">📦 组件面板</text><rect x="12" y="110" width="216" height="30" fill="#f8f9fa" stroke="#e0e0e0" stroke-width="1" rx="4"/><text x="24" y="130" font-family="Arial, 'PingFang SC', sans-serif" font-size="12" fill="#555" font-weight="normal" text-anchor="start">view 容器</text><rect x="12" y="146" width="216" height="30" fill="#f8f9fa" stroke="#e0e0e0" stroke-width="1" rx="4"/><text x="24" y="166" font-family="Arial, 'PingFang SC', sans-serif" font-size="12" fill="#555" font-weight="normal" text-anchor="start">text 文本</text><rect x="12" y="182" width="216" height="30" fill="#f8f9fa" stroke="#e0e0e0" stroke-width="1" rx="4"/><text x="24" y="202" font-family="Arial, 'PingFang SC', sans-serif" font-size="12" fill="#555" font-weight="normal" text-anchor="start">image 图片</text><rect x="12" y="218" width="216" height="30" fill="#f8f9fa" stroke="#e0e0e0" stroke-width="1" rx="4"/><text x="24" y="238" font-family="Arial, 'PingFang SC', sans-serif" font-size="12" fill="#555" font-weight="normal" text-anchor="start">button 按钮</text><rect x="12" y="254" width="216" height="30" fill="#f8f9fa" stroke="#e0e0e0" stroke-width="1" rx="4"/><text x="24" y="274" font-family="Arial, 'PingFang SC', sans-serif" font-size="12" fill="#555" font-weight="normal" text-anchor="start">input 输入框</text><rect x="12" y="290" width="216" height="30" fill="#f8f9fa" stroke="#e0e0e0" stroke-width="1" rx="4"/><text x="24" y="310" font-family="Arial, 'PingFang SC', sans-serif" font-size="12" fill="#555" font-weight="normal" text-anchor="start">list 列表</text><rect x="12" y="326" width="216" height="30" fill="#f8f9fa" stroke="#e0e0e0" stroke-width="1" rx="4"/><text x="24" y="346" font-family="Arial, 'PingFang SC', sans-serif" font-size="12" fill="#555" font-weight="normal" text-anchor="start">scroll-view</text><rect x="12" y="362" width="216" height="30" fill="#f8f9fa" stroke="#e0e0e0" stroke-width="1" rx="4"/><text x="24" y="382" font-family="Arial, 'PingFang SC', sans-serif" font-size="12" fill="#555" font-weight="normal" text-anchor="start">swiper 轮播</text><rect x="12" y="398" width="216" height="30" fill="#f8f9fa" stroke="#e0e0e0" stroke-width="1" rx="4"/><text x="24" y="418" font-family="Arial, 'PingFang SC', sans-serif" font-size="12" fill="#555" font-weight="normal" text-anchor="start">form 表单</text><rect x="240" y="56" width="660" height="744" fill="#e8ecf1"/><rect x="240" y="56" width="660" height="36" fill="#dde1e8"/><text x="256" y="80" font-family="Arial, 'PingFang SC', sans-serif" font-size="12" fill="#666" font-weight="bold" text-anchor="start">🎨 设计画布</text><rect x="280" y="120" width="580" height="36" fill="#e3f2fd" stroke="#90caf9" stroke-width="1" rx="4"/><text x="292" y="142" font-family="Arial, 'PingFang SC', sans-serif" font-size="11" fill="#333" font-weight="bold" text-anchor="start">&lt;scroll-view&gt; #root</text><rect x="296" y="162" width="548" height="36" fill="#f3e5f5" stroke="#ce93d8" stroke-width="1" rx="4"/><text x="308" y="184" font-family="Arial, 'PingFang SC', sans-serif" font-size="11" fill="#333" font-weight="bold" text-anchor="start">&lt;view&gt; #list-item</text><rect x="312" y="204" width="516" height="36" fill="#e8f5e9" stroke="#a5d6a7" stroke-width="1" rx="4"/><text x="324" y="226" font-family="Arial, 'PingFang SC', sans-serif" font-size="11" fill="#333" font-weight="bold" text-anchor="start">&lt;text&gt; #item-title</text><rect x="312" y="246" width="516" height="36" fill="#e8f5e9" stroke="#a5d6a7" stroke-width="1" rx="4"/><text x="324" y="268" font-family="Arial, 'PingFang SC', sans-serif" font-size="11" fill="#333" font-weight="bold" text-anchor="start">&lt;text&gt; #item-desc</text><line x1="240" y1="92" x2="240" y2="800" stroke="#e0e0e0" stroke-width="0.5" opacity="0.3"/><line x1="260" y1="92" x2="260" y2="800" stroke="#e0e0e0" stroke-width="0.5" opacity="0.3"/><line x1="280" y1="92" x2="280" y2="800" stroke="#e0e0e0" stroke-width="0.5" opacity="0.3"/><line x1="300" y1="92" x2="300" y2="800" stroke="#e0e0e0" stroke-width="0.5" opacity="0.3"/><line x1="320" y1="92" x2="320" y2="800" stroke="#e0e0e0" stroke-width="0.5" opacity="0.3"/><line x1="340" y1="92" x2="340" y2="800" stroke="#e0e0e0" stroke-width="0.5" opacity="0.3"/><line x1="360" y1="92" x2="360" y2="800" stroke="#e0e0e0" stroke-width="0.5" opacity="0.3"/><line x1="380" y1="92" x2="380" y2="800" stroke="#e0e0e0" stroke-width="0.5" opacity="0.3"/><line x1="400" y1="92" x2="400" y2="800" stroke="#e0e0e0" stroke-width="0.5" opacity="0.3"/><line x1="420" y1="92" x2="420" y2="800" stroke="#e0e0e0" stroke-width="0.5" opacity="0.3"/><line x1="440" y1="92" x2="440" y2="800" stroke="#e0e0e0" stroke-width="0.5" opacity="0.3"/><line x1="460" y1="92" x2="460" y2="800" stroke="#e0e0e0" stroke-width="0.5" opacity="0.3"/><line x1="480" y1="92" x2="480" y2="800" stroke="#e0e0e0" stroke-width="0.5" opacity="0.3"/><line x1="500" y1="92" x2="500" y2="800" stroke="#e0e0e0" stroke-width="0.5" opacity="0.3"/><line x1="520" y1="92" x2="520" y2="800" stroke="#e0e0e0" stroke-width="0.5" opacity="0.3"/><line x1="540" y1="92" x2="540" y2="800" stroke="#e0e0e0" stroke-width="0.5" opacity="0.3"/><line x1="560" y1="92" x2="560" y2="800" stroke="#e0e0e0" stroke-width="0.5" opacity="0.3"/><line x1="580" y1="92" x2="580" y2="800" stroke="#e0e0e0" stroke-width="0.5" opacity="0.3"/><line x1="600" y1="92" x2="600" y2="800" stroke="#e0e0e0" stroke-width="0.5" opacity="0.3"/><line x1="620" y1="92" x2="620" y2="800" stroke="#e0e0e0" stroke-width="0.5" opacity="0.3"/><line x1="640" y1="92" x2="640" y2="800" stroke="#e0e0e0" stroke-width="0.5" opacity="0.3"/><line x1="660" y1="92" x2="660" y2="800" stroke="#e0e0e0" stroke-width="0.5" opacity="0.3"/><line x1="680" y1="92" x2="680" y2="800" stroke="#e0e0e0" stroke-width="0.5" opacity="0.3"/><line x1="700" y1="92" x2="700" y2="800" stroke="#e0e0e0" stroke-width="0.5" opacity="0.3"/><line x1="720" y1="92" x2="720" y2="800" stroke="#e0e0e0" stroke-width="0.5" opacity="0.3"/><line x1="740" y1="92" x2="740" y2="800" stroke="#e0e0e0" stroke-width="0.5" opacity="0.3"/><line x1="760" y1="92" x2="760" y2="800" stroke="#e0e0e0" stroke-width="0.5" opacity="0.3"/><line x1="780" y1="92" x2="780" y2="800" stroke="#e0e0e0" stroke-width="0.5" opacity="0.3"/><line x1="800" y1="92" x2="800" y2="800" stroke="#e0e0e0" stroke-width="0.5" opacity="0.3"/><line x1="820" y1="92" x2="820" y2="800" stroke="#e0e0e0" stroke-width="0.5" opacity="0.3"/><line x1="840" y1="92" x2="840" y2="800" stroke="#e0e0e0" stroke-width="0.5" opacity="0.3"/><line x1="860" y1="92" x2="860" y2="800" stroke="#e0e0e0" stroke-width="0.5" opacity="0.3"/><line x1="880" y1="92" x2="880" y2="800" stroke="#e0e0e0" stroke-width="0.5" opacity="0.3"/><line x1="240" y1="92" x2="900" y2="92" stroke="#e0e0e0" stroke-width="0.5" opacity="0.3"/><line x1="240" y1="112" x2="900" y2="112" stroke="#e0e0e0" stroke-width="0.5" opacity="0.3"/><line x1="240" y1="132" x2="900" y2="132" stroke="#e0e0e0" stroke-width="0.5" opacity="0.3"/><line x1="240" y1="152" x2="900" y2="152" stroke="#e0e0e0" stroke-width="0.5" opacity="0.3"/><line x1="240" y1="172" x2="900" y2="172" stroke="#e0e0e0" stroke-width="0.5" opacity="0.3"/><line x1="240" y1="192" x2="900" y2="192" stroke="#e0e0e0" stroke-width="0.5" opacity="0.3"/><line x1="240" y1="212" x2="900" y2="212" stroke="#e0e0e0" stroke-width="0.5" opacity="0.3"/><line x1="240" y1="232" x2="900" y2="232" stroke="#e0e0e0" stroke-width="0.5" opacity="0.3"/><line x1="240" y1="252" x2="900" y2="252" stroke="#e0e0e0" stroke-width="0.5" opacity="0.3"/><line x1="240" y1="272" x2="900" y2="272" stroke="#e0e0e0" stroke-width="0.5" opacity="0.3"/><line x1="240" y1="292" x2="900" y2="292" stroke="#e0e0e0" stroke-width="0.5" opacity="0.3"/><line x1="240" y1="312" x2="900" y2="312" stroke="#e0e0e0" stroke-width="0.5" opacity="0.3"/><line x1="240" y1="332" x2="900" y2="332" stroke="#e0e0e0" stroke-width="0.5" opacity="0.3"/><line x1="240" y1="352" x2="900" y2="352" stroke="#e0e0e0" stroke-width="0.5" opacity="0.3"/><line x1="240" y1="372" x2="900" y2="372" stroke="#e0e0e0" stroke-width="0.5" opacity="0.3"/><line x1="240" y1="392" x2="900" y2="392" stroke="#e0e0e0" stroke-width="0.5" opacity="0.3"/><line x1="240" y1="412" x2="900" y2="412" stroke="#e0e0e0" stroke-width="0.5" opacity="0.3"/><line x1="240" y1="432" x2="900" y2="432" stroke="#e0e0e0" stroke-width="0.5" opacity="0.3"/><line x1="240" y1="452" x2="900" y2="452" stroke="#e0e0e0" stroke-width="0.5" opacity="0.3"/><line x1="240" y1="472" x2="900" y2="472" stroke="#e0e0e0" stroke-width="0.5" opacity="0.3"/><line x1="240" y1="492" x2="900" y2="492" stroke="#e0e0e0" stroke-width="0.5" opacity="0.3"/><line x1="240" y1="512" x2="900" y2="512" stroke="#e0e0e0" stroke-width="0.5" opacity="0.3"/><line x1="240" y1="532" x2="900" y2="532" stroke="#e0e0e0" stroke-width="0.5" opacity="0.3"/><line x1="240" y1="552" x2="900" y2="552" stroke="#e0e0e0" stroke-width="0.5" opacity="0.3"/><line x1="240" y1="572" x2="900" y2="572" stroke="#e0e0e0" stroke-width="0.5" opacity="0.3"/><line x1="240" y1="592" x2="900" y2="592" stroke="#e0e0e0" stroke-width="0.5" opacity="0.3"/><line x1="240" y1="612" x2="900" y2="612" stroke="#e0e0e0" stroke-width="0.5" opacity="0.3"/><line x1="240" y1="632" x2="900" y2="632" stroke="#e0e0e0" stroke-width="0.5" opacity="0.3"/><line x1="240" y1="652" x2="900" y2="652" stroke="#e0e0e0" stroke-width="0.5" opacity="0.3"/><line x1="240" y1="672" x2="900" y2="672" stroke="#e0e0e0" stroke-width="0.5" opacity="0.3"/><line x1="240" y1="692" x2="900" y2="692" stroke="#e0e0e0" stroke-width="0.5" opacity="0.3"/><line x1="240" y1="712" x2="900" y2="712" stroke="#e0e0e0" stroke-width="0.5" opacity="0.3"/><line x1="240" y1="732" x2="900" y2="732" stroke="#e0e0e0" stroke-width="0.5" opacity="0.3"/><line x1="240" y1="752" x2="900" y2="752" stroke="#e0e0e0" stroke-width="0.5" opacity="0.3"/><line x1="240" y1="772" x2="900" y2="772" stroke="#e0e0e0" stroke-width="0.5" opacity="0.3"/><line x1="240" y1="792" x2="900" y2="792" stroke="#e0e0e0" stroke-width="0.5" opacity="0.3"/><rect x="900" y="56" width="300" height="744" fill="#ffffff"/><rect x="900" y="56" width="300" height="40" fill="#f0f0f5"/><text x="916" y="82" font-family="Arial, 'PingFang SC', sans-serif" font-size="13" fill="#333" font-weight="bold" text-anchor="start">⚙️ 属性面板</text><text x="916" y="124" font-family="Arial, 'PingFang SC', sans-serif" font-size="11" fill="#888" font-weight="normal" text-anchor="start">ID</text><rect x="916" y="130" width="268" height="28" fill="#f5f5f5" stroke="#e0e0e0" stroke-width="1" rx="4"/><text x="924" y="149" font-family="Arial, 'PingFang SC', sans-serif" font-size="11" fill="#333" font-weight="normal" text-anchor="start">node_1</text><text x="916" y="184" font-family="Arial, 'PingFang SC', sans-serif" font-size="11" fill="#888" font-weight="normal" text-anchor="start">类型</text><rect x="916" y="190" width="268" height="28" fill="#f5f5f5" stroke="#e0e0e0" stroke-width="1" rx="4"/><text x="924" y="209" font-family="Arial, 'PingFang SC', sans-serif" font-size="11" fill="#333" font-weight="normal" text-anchor="start">view</text><text x="916" y="244" font-family="Arial, 'PingFang SC', sans-serif" font-size="11" fill="#888" font-weight="normal" text-anchor="start">数据绑定</text><rect x="916" y="250" width="268" height="28" fill="#f5f5f5" stroke="#e0e0e0" stroke-width="1" rx="4"/><text x="924" y="269" font-family="Arial, 'PingFang SC', sans-serif" font-size="11" fill="#333" font-weight="normal" text-anchor="start">{{user.name}}</text><text x="916" y="304" font-family="Arial, 'PingFang SC', sans-serif" font-size="11" fill="#888" font-weight="normal" text-anchor="start">条件渲染</text><rect x="916" y="310" width="268" height="28" fill="#f5f5f5" stroke="#e0e0e0" stroke-width="1" rx="4"/><text x="924" y="329" font-family="Arial, 'PingFang SC', sans-serif" font-size="11" fill="#333" font-weight="normal" text-anchor="start">{{showHeader}}</text><text x="916" y="364" font-family="Arial, 'PingFang SC', sans-serif" font-size="11" fill="#888" font-weight="normal" text-anchor="start">样式</text><rect x="916" y="370" width="268" height="28" fill="#f5f5f5" stroke="#e0e0e0" stroke-width="1" rx="4"/><text x="924" y="389" font-family="Arial, 'PingFang SC', sans-serif" font-size="11" fill="#333" font-weight="normal" text-anchor="start">flex: 1, padding: 16</text><rect x="900" y="430" width="300" height="40" fill="#f0f0f5"/><text x="916" y="456" font-family="Arial, 'PingFang SC', sans-serif" font-size="13" fill="#333" font-weight="bold" text-anchor="start">📊 数据源配置</text><rect x="916" y="480" width="268" height="60" fill="#f5f5f5" stroke="#e0e0e0" stroke-width="1" rx="4"/><text x="924" y="500" font-family="Arial, 'PingFang SC', sans-serif" font-size="11" fill="#1565c0" font-weight="normal" text-anchor="start">GET /api/user</text><text x="924" y="520" font-family="Arial, 'PingFang SC', sans-serif" font-size="10" fill="#888" font-weight="normal" text-anchor="start">key: userInfo, cache: 60s</text><rect x="0" y="772" width="1200" height="28" fill="#f0f0f5"/><text x="16" y="790" font-family="Arial, 'PingFang SC', sans-serif" font-size="10" fill="#888" font-weight="normal" text-anchor="start">状态: 设计中 | 节点: 12 | 数据绑定: 5 | 版本: draft</text></svg>