<svg xmlns="http://www.w3.org/2000/svg" width="415" height="872" viewBox="0 0 415 872"><rect x="8" y="8" width="399" height="856" fill="#1a1a1a" rx="30"/><rect x="20" y="30" width="375" height="812" fill="#ffffff"/><rect x="20" y="30" width="375" height="40" fill="#ededed"/><text x="207.5" y="46" font-family="Arial, 'PingFang SC', sans-serif" font-size="10" fill="#333" font-weight="bold" text-anchor="middle">9:41</text><rect x="20" y="70" width="375" height="44" fill="#ffffff"/><text x="36" y="96" font-family="Arial, 'PingFang SC', sans-serif" font-size="16" fill="#333" font-weight="normal" text-anchor="start">←</text><text x="207.5" y="98" font-family="Arial, 'PingFang SC', sans-serif" font-size="15" fill="#333" font-weight="bold" text-anchor="middle">商品详情</text><text x="375" y="96" font-family="Arial, 'PingFang SC', sans-serif" font-size="16" fill="#333" font-weight="normal" text-anchor="end">⋯</text><rect x="20" y="114" width="375" height="300" fill="#f0f0f0"/><text x="207.5" y="264" font-family="Arial, 'PingFang SC', sans-serif" font-size="18" fill="#ccc" font-weight="normal" text-anchor="middle">🖼 商品主图</text><circle cx="183.5" cy="394" r="3" fill="#1976d2"/><circle cx="195.5" cy="394" r="3" fill="#ddd"/><circle cx="207.5" cy="394" r="3" fill="#ddd"/><circle cx="219.5" cy="394" r="3" fill="#ddd"/><circle cx="231.5" cy="394" r="3" fill="#ddd"/><rect x="20" y="424" width="375" height="60" fill="#ffffff"/><text x="32" y="454" font-family="Arial, 'PingFang SC', sans-serif" font-size="14" fill="#e53935" font-weight="bold" text-anchor="start">¥</text><text x="48" y="458" font-family="Arial, 'PingFang SC', sans-serif" font-size="22" fill="#e53935" font-weight="bold" text-anchor="start">199.00</text><text x="140" y="454" font-family="Arial, 'PingFang SC', sans-serif" font-size="12" fill="#999" font-weight="normal" text-anchor="start">¥399.00</text><line x1="140" y1="451" x2="190" y2="451" stroke="#999" stroke-width="1"/><text x="383" y="454" font-family="Arial, 'PingFang SC', sans-serif" font-size="11" fill="#999" font-weight="normal" text-anchor="end">已售 2.3万</text><rect x="20" y="489" width="375" height="50" fill="#ffffff"/><text x="32" y="514" font-family="Arial, 'PingFang SC', sans-serif" font-size="15" fill="#333" font-weight="bold" text-anchor="start">商品标题名称 限时特惠 品质保证</text><text x="32" y="532" font-family="Arial, 'PingFang SC', sans-serif" font-size="11" fill="#999" font-weight="normal" text-anchor="start">包邮 · 7天无理由退换</text><rect x="20" y="549" width="375" height="44" fill="#ffffff"/><text x="32" y="576" font-family="Arial, 'PingFang SC', sans-serif" font-size="13" fill="#666" font-weight="normal" text-anchor="start">选择</text><text x="68" y="576" font-family="Arial, 'PingFang SC', sans-serif" font-size="13" fill="#333" font-weight="normal" text-anchor="start">颜色 · 尺码</text><text x="375" y="576" font-family="Arial, 'PingFang SC', sans-serif" font-size="14" fill="#ccc" font-weight="normal" text-anchor="end">&gt;</text><rect x="20" y="598" width="375" height="8" fill="#f5f5f5"/><rect x="32" y="614" width="80" height="28" fill="#ff9800" rx="4"/><text x="72" y="633" font-family="Arial, 'PingFang SC', sans-serif" font-size="11" fill="#fff" font-weight="bold" text-anchor="middle">👆 收藏</text><rect x="120" y="614" width="80" height="28" fill="#4caf50" rx="4"/><text x="160" y="633" font-family="Arial, 'PingFang SC', sans-serif" font-size="11" fill="#fff" font-weight="bold" text-anchor="middle">💬 咨询</text><circle cx="72" cy="628" r="18" fill="none" stroke="#ff9800" stroke-width="2" stroke-dasharray="4,2" opacity="0.5"/><rect x="20" y="792" width="375" height="50" fill="#ffffff"/><line x1="20" y1="792" x2="395" y2="792" stroke="#e0e0e0" stroke-width="1"/><text x="50" y="812" font-family="Arial, 'PingFang SC', sans-serif" font-size="16" fill="#666" font-weight="normal" text-anchor="middle">🏠</text><text x="50" y="830" font-family="Arial, 'PingFang SC', sans-serif" font-size="9" fill="#666" font-weight="normal" text-anchor="middle">首页</text><text x="100" y="812" font-family="Arial, 'PingFang SC', sans-serif" font-size="16" fill="#666" font-weight="normal" text-anchor="middle">💬</text><text x="100" y="830" font-family="Arial, 'PingFang SC', sans-serif" font-size="9" fill="#666" font-weight="normal" text-anchor="middle">客服</text><rect x="140" y="798" width="119.5" height="38" fill="#ff9800" rx="4"/><text x="199.75" y="822" font-family="Arial, 'PingFang SC', sans-serif" font-size="13" fill="#fff" font-weight="bold" text-anchor="middle">加入购物车</text><rect x="267.5" y="798" width="119.5" height="38" fill="#e53935" rx="4"/><text x="327.25" y="822" font-family="Arial, 'PingFang SC', sans-serif" font-size="13" fill="#fff" font-weight="bold" text-anchor="middle">立即购买</text><rect x="157.5" y="850" width="100" height="4" fill="#333" rx="2"/></svg>