<svg xmlns="http://www.w3.org/2000/svg" width="415" height="872" viewBox="0 0 415 872"><rect x="8" y="8" width="399" height="856" fill="#1a1a1a" rx="30"/><rect x="20" y="30" width="375" height="812" fill="#ffffff"/><rect x="20" y="30" width="375" height="40" fill="#ededed"/><text x="207.5" y="46" font-family="Arial, 'PingFang SC', sans-serif" font-size="10" fill="#333" font-weight="bold" text-anchor="middle">9:41</text><text x="345" y="46" font-family="Arial, 'PingFang SC', sans-serif" font-size="10" fill="#333" font-weight="normal" text-anchor="end">📶 🔋</text><rect x="20" y="70" width="375" height="44" fill="#ffffff"/><text x="36" y="96" font-family="Arial, 'PingFang SC', sans-serif" font-size="16" fill="#333" font-weight="normal" text-anchor="start">←</text><text x="207.5" y="98" font-family="Arial, 'PingFang SC', sans-serif" font-size="15" fill="#333" font-weight="bold" text-anchor="middle">List</text><rect x="315" y="80" width="64" height="24" fill="#f0f0f0" stroke="#ddd" stroke-width="1" rx="12"/><text x="347" y="96" font-family="Arial, 'PingFang SC', sans-serif" font-size="10" fill="#666" font-weight="normal" text-anchor="middle">•••  ✕</text><rect x="28" y="122" width="359" height="30" fill="transparent" stroke="#e0e0e0" stroke-width="1" rx="0"/><rect x="20" y="792" width="375" height="50" fill="#ffffff"/><line x1="20" y1="792" x2="395" y2="792" stroke="#e0e0e0" stroke-width="1"/><text x="66.875" y="814" font-family="Arial, 'PingFang SC', sans-serif" font-size="18" fill="#1976d2" font-weight="normal" text-anchor="middle">🏠</text><text x="66.875" y="832" font-family="Arial, 'PingFang SC', sans-serif" font-size="9" fill="#1976d2" font-weight="bold" text-anchor="middle">首页</text><text x="160.625" y="814" font-family="Arial, 'PingFang SC', sans-serif" font-size="18" fill="#999" font-weight="normal" text-anchor="middle">📂</text><text x="160.625" y="832" font-family="Arial, 'PingFang SC', sans-serif" font-size="9" fill="#999" font-weight="normal" text-anchor="middle">分类</text><text x="254.375" y="814" font-family="Arial, 'PingFang SC', sans-serif" font-size="18" fill="#999" font-weight="normal" text-anchor="middle">🛒</text><text x="254.375" y="832" font-family="Arial, 'PingFang SC', sans-serif" font-size="9" fill="#999" font-weight="normal" text-anchor="middle">购物车</text><text x="348.125" y="814" font-family="Arial, 'PingFang SC', sans-serif" font-size="18" fill="#999" font-weight="normal" text-anchor="middle">👤</text><text x="348.125" y="832" font-family="Arial, 'PingFang SC', sans-serif" font-size="9" fill="#999" font-weight="normal" text-anchor="middle">我的</text><rect x="157.5" y="850" width="100" height="4" fill="#333" rx="2"/></svg>